name C:\Users\u0101727\Documents\MyRepositories\upper-imu-dc\Results\main_tracking\Case_64\kinematics.mot
datacolumns 10
datarows 28
range 3.50000000 3.77000000
endheader 
time	clav_prot	clav_elev	scapula_abduction	scapula_elevation	scapula_upward_rot	scapula_winging	plane_elv	shoulder_elv	axial_rot	
          3.50000000	        -44.42837321	          9.03546807	          0.88005925	         -1.63127574	         84.22208977	        -11.78851364	         37.79236115	         87.71987432	         -7.43289380	
          3.51000000	        -44.42620595	          9.04290499	          0.87514692	         -1.62716055	         84.21319393	        -11.79057843	         37.83673085	         87.69015120	         -7.39420742	
          3.52000000	        -44.42348800	          9.04939546	          0.87051439	         -1.62378631	         84.20313538	        -11.79225171	         37.87887615	         87.65935328	         -7.35548128	
          3.53000000	        -44.42032172	          9.05480616	          0.86602661	         -1.62125095	         84.19192353	        -11.79356507	         37.91844504	         87.62756488	         -7.31658062	
          3.54000000	        -44.41679576	          9.05903332	          0.86158938	         -1.61962710	         84.17959991	        -11.79454280	         37.95517083	         87.59489311	         -7.27728640	
          3.55000000	        -44.41298703	          9.06200144	          0.85714577	         -1.61896322	         84.16623765	        -11.79520298	         37.98887569	         87.56146677	         -7.23731202	
          3.56000000	        -44.40896311	          9.06366039	          0.85267070	         -1.61928609	         84.15193877	        -11.79555872	         38.01946945	         87.52743373	         -7.19633668	
          3.57000000	        -44.40478252	          9.06398403	          0.84816739	         -1.62060240	         84.13682963	        -11.79561879	         38.04694341	         87.49295651	         -7.15405182	
          3.58000000	        -44.40049079	          9.06297242	          0.84366865	         -1.62289770	         84.12105466	        -11.79538678	         38.07135967	         87.45820610	         -7.11021418	
          3.59000000	        -44.39611252	          9.06065749	          0.83924315	         -1.62613285	         84.10476865	        -11.79485876	         38.09283733	         87.42335433	         -7.06469829	
          3.60000000	        -44.39164228	          9.05710898	          0.83500255	         -1.63024037	         84.08812760	        -11.79402054	         38.11153828	         87.38856532	         -7.01754180	
          3.61000000	        -44.38703866	          9.05243570	          0.83110322	         -1.63512435	         84.07127819	        -11.79284607	         38.12765578	         87.35398669	         -6.96897837	
          3.62000000	        -44.38222477	          9.04677887	          0.82773843	         -1.64066651	         84.05434654	        -11.79129818	         38.14140783	         87.31974101	         -6.91945504	
          3.63000000	        -44.37709567	          9.04029738	          0.82512045	         -1.64673813	         84.03742682	        -11.78933181	         38.15303625	         87.28591822	         -6.86963254	
          3.64000000	        -44.37153127	          9.03314750	          0.82345569	         -1.65321636	         84.02057090	        -11.78689913	         38.16281056	         87.25256909	         -6.82036947	
          3.65000000	        -44.36541159	          9.02546065	          0.82291761	         -1.66000153	         84.00377997	        -11.78395529	         38.17103510	         87.21970026	         -6.77269211	
          3.66000000	        -44.35863048	          9.01732413	          0.82362352	         -1.66703219	         83.98699871	        -11.78046350	         38.17805747	         87.18727112	         -6.72775311	
          3.67000000	        -44.35110384	          9.00876932	          0.82562132	         -1.67429415	         83.97011240	        -11.77639770	         38.18427577	         87.15519282	         -6.68678189	
          3.68000000	        -44.34276980	          8.99977012	          0.82888956	         -1.68182147	         83.95294701	        -11.77174224	         38.19014303	         87.12332976	         -6.65102997	
          3.69000000	        -44.33358135	          8.99025078	          0.83334977	         -1.68969026	         83.93527140	        -11.76648852	         38.19616801	         87.09150353	         -6.62171392	
          3.70000000	        -44.32349378	          8.98009989	          0.83888668	         -1.69800770	         83.91680020	        -11.76062980	         38.20291231	         87.05949959	         -6.59995886	
          3.71000000	        -44.31244939	          8.96918748	          0.84537203	         -1.70689872	         83.89719643	        -11.75415513	         38.21098419	         87.02707684	         -6.58674538	
          3.72000000	        -44.30036101	          8.95738369	          0.85269002	         -1.71649162	         83.87607386	        -11.74704290	         38.22102907	         86.99397916	         -6.58286230	
          3.73000000	        -44.28709514	          8.94457860	          0.86076361	         -1.72690265	         83.85300040	        -11.73925449	         38.23371708	         86.95994765	         -6.58886688	
          3.74000000	        -44.27245568	          8.93070308	          0.86958174	         -1.73821970	         83.82750383	        -11.73072805	         38.24972823	         86.92473195	         -6.60505361	
          3.75000000	        -44.25616806	          8.91575078	          0.87922770	         -1.75048479	         83.79908075	        -11.72137252	         38.26973595	         86.88809940	         -6.63143286	
          3.76000000	        -44.23786372	          8.89980127	          0.88990930	         -1.76367545	         83.76720878	        -11.71106174	         38.29438974	         86.84984200	         -6.66772093	
          3.77000000	        -44.21706560	          8.88304300	          0.90198934	         -1.77768592	         83.73136128	        -11.69962891	         38.32429797	         86.80978079	         -6.71334363	
